<svg xmlns="http://www.w3.org/2000/svg" viewBox="0 0 600 600">
  <rect width="600" height="600" fill="#fdf6ec"/>
  <rect x="14" y="14" width="572" height="572" fill="none" stroke="#8a4a1a" stroke-width="2" opacity="0.5"/>
  <rect x="24" y="24" width="552" height="552" fill="none" stroke="#8a4a1a" stroke-width="1" stroke-dasharray="3 6" opacity="0.5"/>
  <circle cx="300" cy="210" r="117" fill="none" stroke="#8a4a1a" stroke-width="3.25"/><circle cx="300" cy="210" r="124.80000000000001" fill="none" stroke="#8a4a1a" stroke-width="1.56" stroke-dasharray="5.2 6.5"/><ellipse cx="300.0" cy="119.0" rx="10.4" ry="26" fill="#8a4a1a" opacity="1" transform="rotate(0.0 300.0 119.0)"/><ellipse cx="364.3" cy="145.7" rx="10.4" ry="26" fill="#8a4a1a" opacity="1" transform="rotate(45.0 364.3 145.7)"/><ellipse cx="391.0" cy="210.0" rx="10.4" ry="26" fill="#8a4a1a" opacity="1" transform="rotate(90.0 391.0 210.0)"/><ellipse cx="364.3" cy="274.3" rx="10.4" ry="26" fill="#8a4a1a" opacity="1" transform="rotate(135.0 364.3 274.3)"/><ellipse cx="300.0" cy="301.0" rx="10.4" ry="26" fill="#8a4a1a" opacity="1" transform="rotate(180.0 300.0 301.0)"/><ellipse cx="235.7" cy="274.3" rx="10.4" ry="26" fill="#8a4a1a" opacity="1" transform="rotate(225.0 235.7 274.3)"/><ellipse cx="209.0" cy="210.0" rx="10.4" ry="26" fill="#8a4a1a" opacity="1" transform="rotate(270.0 209.0 210.0)"/><ellipse cx="235.7" cy="145.7" rx="10.4" ry="26" fill="#8a4a1a" opacity="1" transform="rotate(315.0 235.7 145.7)"/><ellipse cx="300.0" cy="147.6" rx="7.800000000000001" ry="18.2" fill="#c05f21" opacity="0.85" transform="rotate(0.0 300.0 147.6)"/><ellipse cx="344.1" cy="165.9" rx="7.800000000000001" ry="18.2" fill="#c05f21" opacity="0.85" transform="rotate(45.0 344.1 165.9)"/><ellipse cx="362.4" cy="210.0" rx="7.800000000000001" ry="18.2" fill="#c05f21" opacity="0.85" transform="rotate(90.0 362.4 210.0)"/><ellipse cx="344.1" cy="254.1" rx="7.800000000000001" ry="18.2" fill="#c05f21" opacity="0.85" transform="rotate(135.0 344.1 254.1)"/><ellipse cx="300.0" cy="272.4" rx="7.800000000000001" ry="18.2" fill="#c05f21" opacity="0.85" transform="rotate(180.0 300.0 272.4)"/><ellipse cx="255.9" cy="254.1" rx="7.800000000000001" ry="18.2" fill="#c05f21" opacity="0.85" transform="rotate(225.0 255.9 254.1)"/><ellipse cx="237.6" cy="210.0" rx="7.800000000000001" ry="18.2" fill="#c05f21" opacity="0.85" transform="rotate(270.0 237.6 210.0)"/><ellipse cx="255.9" cy="165.9" rx="7.800000000000001" ry="18.2" fill="#c05f21" opacity="0.85" transform="rotate(315.0 255.9 165.9)"/><circle cx="300.0" cy="100.8" r="3.3800000000000003" fill="#5d2f0e"/><circle cx="341.8" cy="109.1" r="3.3800000000000003" fill="#5d2f0e"/><circle cx="377.2" cy="132.8" r="3.3800000000000003" fill="#5d2f0e"/><circle cx="400.9" cy="168.2" r="3.3800000000000003" fill="#5d2f0e"/><circle cx="409.2" cy="210.0" r="3.3800000000000003" fill="#5d2f0e"/><circle cx="400.9" cy="251.8" r="3.3800000000000003" fill="#5d2f0e"/><circle cx="377.2" cy="287.2" r="3.3800000000000003" fill="#5d2f0e"/><circle cx="341.8" cy="310.9" r="3.3800000000000003" fill="#5d2f0e"/><circle cx="300.0" cy="319.2" r="3.3800000000000003" fill="#5d2f0e"/><circle cx="258.2" cy="310.9" r="3.3800000000000003" fill="#5d2f0e"/><circle cx="222.8" cy="287.2" r="3.3800000000000003" fill="#5d2f0e"/><circle cx="199.1" cy="251.8" r="3.3800000000000003" fill="#5d2f0e"/><circle cx="190.8" cy="210.0" r="3.3800000000000003" fill="#5d2f0e"/><circle cx="199.1" cy="168.2" r="3.3800000000000003" fill="#5d2f0e"/><circle cx="222.8" cy="132.8" r="3.3800000000000003" fill="#5d2f0e"/><circle cx="258.2" cy="109.1" r="3.3800000000000003" fill="#5d2f0e"/><circle cx="300.0" cy="168.4" r="3.12" fill="#5d2f0e"/><circle cx="329.4" cy="180.6" r="3.12" fill="#5d2f0e"/><circle cx="341.6" cy="210.0" r="3.12" fill="#5d2f0e"/><circle cx="329.4" cy="239.4" r="3.12" fill="#5d2f0e"/><circle cx="300.0" cy="251.6" r="3.12" fill="#5d2f0e"/><circle cx="270.6" cy="239.4" r="3.12" fill="#5d2f0e"/><circle cx="258.4" cy="210.0" r="3.12" fill="#5d2f0e"/><circle cx="270.6" cy="180.6" r="3.12" fill="#5d2f0e"/><circle cx="300" cy="210" r="20.8" fill="#8a4a1a"/><circle cx="300" cy="210" r="9.1" fill="#c05f21"/><ellipse cx="300.0" cy="410.0" rx="10" ry="26" fill="#8a4a1a" opacity="1" transform="rotate(0.0 300.0 410.0)"/><ellipse cx="330.0" cy="418.0" rx="10" ry="26" fill="#8a4a1a" opacity="1" transform="rotate(30.0 330.0 418.0)"/><ellipse cx="352.0" cy="440.0" rx="10" ry="26" fill="#8a4a1a" opacity="1" transform="rotate(60.0 352.0 440.0)"/><ellipse cx="360.0" cy="470.0" rx="10" ry="26" fill="#8a4a1a" opacity="1" transform="rotate(90.0 360.0 470.0)"/><ellipse cx="352.0" cy="500.0" rx="10" ry="26" fill="#8a4a1a" opacity="1" transform="rotate(120.0 352.0 500.0)"/><ellipse cx="330.0" cy="522.0" rx="10" ry="26" fill="#8a4a1a" opacity="1" transform="rotate(150.0 330.0 522.0)"/><ellipse cx="300.0" cy="530.0" rx="10" ry="26" fill="#8a4a1a" opacity="1" transform="rotate(180.0 300.0 530.0)"/><ellipse cx="270.0" cy="522.0" rx="10" ry="26" fill="#8a4a1a" opacity="1" transform="rotate(210.0 270.0 522.0)"/><ellipse cx="248.0" cy="500.0" rx="10" ry="26" fill="#8a4a1a" opacity="1" transform="rotate(240.0 248.0 500.0)"/><ellipse cx="240.0" cy="470.0" rx="10" ry="26" fill="#8a4a1a" opacity="1" transform="rotate(270.0 240.0 470.0)"/><ellipse cx="248.0" cy="440.0" rx="10" ry="26" fill="#8a4a1a" opacity="1" transform="rotate(300.0 248.0 440.0)"/><ellipse cx="270.0" cy="418.0" rx="10" ry="26" fill="#8a4a1a" opacity="1" transform="rotate(330.0 270.0 418.0)"/><circle cx="300.0" cy="380.0" r="3" fill="#5d2f0e"/><circle cx="330.8" cy="385.4" r="3" fill="#5d2f0e"/><circle cx="357.9" cy="401.1" r="3" fill="#5d2f0e"/><circle cx="377.9" cy="425.0" r="3" fill="#5d2f0e"/><circle cx="388.6" cy="454.4" r="3" fill="#5d2f0e"/><circle cx="388.6" cy="485.6" r="3" fill="#5d2f0e"/><circle cx="377.9" cy="515.0" r="3" fill="#5d2f0e"/><circle cx="357.9" cy="538.9" r="3" fill="#5d2f0e"/><circle cx="330.8" cy="554.6" r="3" fill="#5d2f0e"/><circle cx="300.0" cy="560.0" r="3" fill="#5d2f0e"/><circle cx="269.2" cy="554.6" r="3" fill="#5d2f0e"/><circle cx="242.1" cy="538.9" r="3" fill="#5d2f0e"/><circle cx="222.1" cy="515.0" r="3" fill="#5d2f0e"/><circle cx="211.4" cy="485.6" r="3" fill="#5d2f0e"/><circle cx="211.4" cy="454.4" r="3" fill="#5d2f0e"/><circle cx="222.1" cy="425.0" r="3" fill="#5d2f0e"/><circle cx="242.1" cy="401.1" r="3" fill="#5d2f0e"/><circle cx="269.2" cy="385.4" r="3" fill="#5d2f0e"/><circle cx="300" cy="470" r="24" fill="#c05f21"/>
</svg>