<svg xmlns="http://www.w3.org/2000/svg" viewBox="0 0 600 600">
  <rect width="600" height="600" fill="#fbf1e1"/>
  <rect x="14" y="14" width="572" height="572" fill="none" stroke="#783d15" stroke-width="2" opacity="0.5"/>
  <rect x="24" y="24" width="552" height="552" fill="none" stroke="#783d15" stroke-width="1" stroke-dasharray="3 6" opacity="0.5"/>
  <circle cx="180" cy="300" r="94.5" fill="none" stroke="#783d15" stroke-width="2.625"/><circle cx="180" cy="300" r="100.80000000000001" fill="none" stroke="#783d15" stroke-width="1.26" stroke-dasharray="4.2 5.25"/><ellipse cx="180.0" cy="226.5" rx="8.4" ry="21" fill="#783d15" opacity="1" transform="rotate(0.0 180.0 226.5)"/><ellipse cx="223.2" cy="240.5" rx="8.4" ry="21" fill="#783d15" opacity="1" transform="rotate(36.0 223.2 240.5)"/><ellipse cx="249.9" cy="277.3" rx="8.4" ry="21" fill="#783d15" opacity="1" transform="rotate(72.0 249.9 277.3)"/><ellipse cx="249.9" cy="322.7" rx="8.4" ry="21" fill="#783d15" opacity="1" transform="rotate(108.0 249.9 322.7)"/><ellipse cx="223.2" cy="359.5" rx="8.4" ry="21" fill="#783d15" opacity="1" transform="rotate(144.0 223.2 359.5)"/><ellipse cx="180.0" cy="373.5" rx="8.4" ry="21" fill="#783d15" opacity="1" transform="rotate(180.0 180.0 373.5)"/><ellipse cx="136.8" cy="359.5" rx="8.4" ry="21" fill="#783d15" opacity="1" transform="rotate(216.0 136.8 359.5)"/><ellipse cx="110.1" cy="322.7" rx="8.4" ry="21" fill="#783d15" opacity="1" transform="rotate(252.0 110.1 322.7)"/><ellipse cx="110.1" cy="277.3" rx="8.4" ry="21" fill="#783d15" opacity="1" transform="rotate(288.0 110.1 277.3)"/><ellipse cx="136.8" cy="240.5" rx="8.4" ry="21" fill="#783d15" opacity="1" transform="rotate(324.0 136.8 240.5)"/><ellipse cx="180.0" cy="249.6" rx="6.300000000000001" ry="14.700000000000001" fill="#ad521d" opacity="0.85" transform="rotate(0.0 180.0 249.6)"/><ellipse cx="209.6" cy="259.2" rx="6.300000000000001" ry="14.700000000000001" fill="#ad521d" opacity="0.85" transform="rotate(36.0 209.6 259.2)"/><ellipse cx="227.9" cy="284.4" rx="6.300000000000001" ry="14.700000000000001" fill="#ad521d" opacity="0.85" transform="rotate(72.0 227.9 284.4)"/><ellipse cx="227.9" cy="315.6" rx="6.300000000000001" ry="14.700000000000001" fill="#ad521d" opacity="0.85" transform="rotate(108.0 227.9 315.6)"/><ellipse cx="209.6" cy="340.8" rx="6.300000000000001" ry="14.700000000000001" fill="#ad521d" opacity="0.85" transform="rotate(144.0 209.6 340.8)"/><ellipse cx="180.0" cy="350.4" rx="6.300000000000001" ry="14.700000000000001" fill="#ad521d" opacity="0.85" transform="rotate(180.0 180.0 350.4)"/><ellipse cx="150.4" cy="340.8" rx="6.300000000000001" ry="14.700000000000001" fill="#ad521d" opacity="0.85" transform="rotate(216.0 150.4 340.8)"/><ellipse cx="132.1" cy="315.6" rx="6.300000000000001" ry="14.700000000000001" fill="#ad521d" opacity="0.85" transform="rotate(252.0 132.1 315.6)"/><ellipse cx="132.1" cy="284.4" rx="6.300000000000001" ry="14.700000000000001" fill="#ad521d" opacity="0.85" transform="rotate(288.0 132.1 284.4)"/><ellipse cx="150.4" cy="259.2" rx="6.300000000000001" ry="14.700000000000001" fill="#ad521d" opacity="0.85" transform="rotate(324.0 150.4 259.2)"/><circle cx="180.0" cy="211.8" r="2.7300000000000004" fill="#52290b"/><circle cx="207.3" cy="216.1" r="2.7300000000000004" fill="#52290b"/><circle cx="231.8" cy="228.6" r="2.7300000000000004" fill="#52290b"/><circle cx="251.4" cy="248.2" r="2.7300000000000004" fill="#52290b"/><circle cx="263.9" cy="272.7" r="2.7300000000000004" fill="#52290b"/><circle cx="268.2" cy="300.0" r="2.7300000000000004" fill="#52290b"/><circle cx="263.9" cy="327.3" r="2.7300000000000004" fill="#52290b"/><circle cx="251.4" cy="351.8" r="2.7300000000000004" fill="#52290b"/><circle cx="231.8" cy="371.4" r="2.7300000000000004" fill="#52290b"/><circle cx="207.3" cy="383.9" r="2.7300000000000004" fill="#52290b"/><circle cx="180.0" cy="388.2" r="2.7300000000000004" fill="#52290b"/><circle cx="152.7" cy="383.9" r="2.7300000000000004" fill="#52290b"/><circle cx="128.2" cy="371.4" r="2.7300000000000004" fill="#52290b"/><circle cx="108.6" cy="351.8" r="2.7300000000000004" fill="#52290b"/><circle cx="96.1" cy="327.3" r="2.7300000000000004" fill="#52290b"/><circle cx="91.8" cy="300.0" r="2.7300000000000004" fill="#52290b"/><circle cx="96.1" cy="272.7" r="2.7300000000000004" fill="#52290b"/><circle cx="108.6" cy="248.2" r="2.7300000000000004" fill="#52290b"/><circle cx="128.2" cy="228.6" r="2.7300000000000004" fill="#52290b"/><circle cx="152.7" cy="216.1" r="2.7300000000000004" fill="#52290b"/><circle cx="180.0" cy="266.4" r="2.52" fill="#52290b"/><circle cx="203.8" cy="276.2" r="2.52" fill="#52290b"/><circle cx="213.6" cy="300.0" r="2.52" fill="#52290b"/><circle cx="203.8" cy="323.8" r="2.52" fill="#52290b"/><circle cx="180.0" cy="333.6" r="2.52" fill="#52290b"/><circle cx="156.2" cy="323.8" r="2.52" fill="#52290b"/><circle cx="146.4" cy="300.0" r="2.52" fill="#52290b"/><circle cx="156.2" cy="276.2" r="2.52" fill="#52290b"/><circle cx="180" cy="300" r="16.8" fill="#783d15"/><circle cx="180" cy="300" r="7.3500000000000005" fill="#ad521d"/><circle cx="430" cy="300" r="94.5" fill="none" stroke="#52290b" stroke-width="2.625"/><circle cx="430" cy="300" r="100.80000000000001" fill="none" stroke="#52290b" stroke-width="1.26" stroke-dasharray="4.2 5.25"/><ellipse cx="430.0" cy="226.5" rx="8.4" ry="21" fill="#52290b" opacity="1" transform="rotate(0.0 430.0 226.5)"/><ellipse cx="473.2" cy="240.5" rx="8.4" ry="21" fill="#52290b" opacity="1" transform="rotate(36.0 473.2 240.5)"/><ellipse cx="499.9" cy="277.3" rx="8.4" ry="21" fill="#52290b" opacity="1" transform="rotate(72.0 499.9 277.3)"/><ellipse cx="499.9" cy="322.7" rx="8.4" ry="21" fill="#52290b" opacity="1" transform="rotate(108.0 499.9 322.7)"/><ellipse cx="473.2" cy="359.5" rx="8.4" ry="21" fill="#52290b" opacity="1" transform="rotate(144.0 473.2 359.5)"/><ellipse cx="430.0" cy="373.5" rx="8.4" ry="21" fill="#52290b" opacity="1" transform="rotate(180.0 430.0 373.5)"/><ellipse cx="386.8" cy="359.5" rx="8.4" ry="21" fill="#52290b" opacity="1" transform="rotate(216.0 386.8 359.5)"/><ellipse cx="360.1" cy="322.7" rx="8.4" ry="21" fill="#52290b" opacity="1" transform="rotate(252.0 360.1 322.7)"/><ellipse cx="360.1" cy="277.3" rx="8.4" ry="21" fill="#52290b" opacity="1" transform="rotate(288.0 360.1 277.3)"/><ellipse cx="386.8" cy="240.5" rx="8.4" ry="21" fill="#52290b" opacity="1" transform="rotate(324.0 386.8 240.5)"/><ellipse cx="430.0" cy="249.6" rx="6.300000000000001" ry="14.700000000000001" fill="#ad521d" opacity="0.85" transform="rotate(0.0 430.0 249.6)"/><ellipse cx="459.6" cy="259.2" rx="6.300000000000001" ry="14.700000000000001" fill="#ad521d" opacity="0.85" transform="rotate(36.0 459.6 259.2)"/><ellipse cx="477.9" cy="284.4" rx="6.300000000000001" ry="14.700000000000001" fill="#ad521d" opacity="0.85" transform="rotate(72.0 477.9 284.4)"/><ellipse cx="477.9" cy="315.6" rx="6.300000000000001" ry="14.700000000000001" fill="#ad521d" opacity="0.85" transform="rotate(108.0 477.9 315.6)"/><ellipse cx="459.6" cy="340.8" rx="6.300000000000001" ry="14.700000000000001" fill="#ad521d" opacity="0.85" transform="rotate(144.0 459.6 340.8)"/><ellipse cx="430.0" cy="350.4" rx="6.300000000000001" ry="14.700000000000001" fill="#ad521d" opacity="0.85" transform="rotate(180.0 430.0 350.4)"/><ellipse cx="400.4" cy="340.8" rx="6.300000000000001" ry="14.700000000000001" fill="#ad521d" opacity="0.85" transform="rotate(216.0 400.4 340.8)"/><ellipse cx="382.1" cy="315.6" rx="6.300000000000001" ry="14.700000000000001" fill="#ad521d" opacity="0.85" transform="rotate(252.0 382.1 315.6)"/><ellipse cx="382.1" cy="284.4" rx="6.300000000000001" ry="14.700000000000001" fill="#ad521d" opacity="0.85" transform="rotate(288.0 382.1 284.4)"/><ellipse cx="400.4" cy="259.2" rx="6.300000000000001" ry="14.700000000000001" fill="#ad521d" opacity="0.85" transform="rotate(324.0 400.4 259.2)"/><circle cx="430.0" cy="211.8" r="2.7300000000000004" fill="#783d15"/><circle cx="457.3" cy="216.1" r="2.7300000000000004" fill="#783d15"/><circle cx="481.8" cy="228.6" r="2.7300000000000004" fill="#783d15"/><circle cx="501.4" cy="248.2" r="2.7300000000000004" fill="#783d15"/><circle cx="513.9" cy="272.7" r="2.7300000000000004" fill="#783d15"/><circle cx="518.2" cy="300.0" r="2.7300000000000004" fill="#783d15"/><circle cx="513.9" cy="327.3" r="2.7300000000000004" fill="#783d15"/><circle cx="501.4" cy="351.8" r="2.7300000000000004" fill="#783d15"/><circle cx="481.8" cy="371.4" r="2.7300000000000004" fill="#783d15"/><circle cx="457.3" cy="383.9" r="2.7300000000000004" fill="#783d15"/><circle cx="430.0" cy="388.2" r="2.7300000000000004" fill="#783d15"/><circle cx="402.7" cy="383.9" r="2.7300000000000004" fill="#783d15"/><circle cx="378.2" cy="371.4" r="2.7300000000000004" fill="#783d15"/><circle cx="358.6" cy="351.8" r="2.7300000000000004" fill="#783d15"/><circle cx="346.1" cy="327.3" r="2.7300000000000004" fill="#783d15"/><circle cx="341.8" cy="300.0" r="2.7300000000000004" fill="#783d15"/><circle cx="346.1" cy="272.7" r="2.7300000000000004" fill="#783d15"/><circle cx="358.6" cy="248.2" r="2.7300000000000004" fill="#783d15"/><circle cx="378.2" cy="228.6" r="2.7300000000000004" fill="#783d15"/><circle cx="402.7" cy="216.1" r="2.7300000000000004" fill="#783d15"/><circle cx="430.0" cy="266.4" r="2.52" fill="#783d15"/><circle cx="453.8" cy="276.2" r="2.52" fill="#783d15"/><circle cx="463.6" cy="300.0" r="2.52" fill="#783d15"/><circle cx="453.8" cy="323.8" r="2.52" fill="#783d15"/><circle cx="430.0" cy="333.6" r="2.52" fill="#783d15"/><circle cx="406.2" cy="323.8" r="2.52" fill="#783d15"/><circle cx="396.4" cy="300.0" r="2.52" fill="#783d15"/><circle cx="406.2" cy="276.2" r="2.52" fill="#783d15"/><circle cx="430" cy="300" r="16.8" fill="#52290b"/><circle cx="430" cy="300" r="7.3500000000000005" fill="#ad521d"/>
</svg>