<svg xmlns="http://www.w3.org/2000/svg" viewBox="0 0 600 800">
  <rect width="600" height="800" fill="#fdf6ec"/>
  <circle cx="300.0" cy="40.0" r="3" fill="#8a4a1a"/><circle cx="386.2" cy="50.5" r="3" fill="#8a4a1a"/><circle cx="467.3" cy="81.2" r="3" fill="#8a4a1a"/><circle cx="538.7" cy="130.5" r="3" fill="#8a4a1a"/><circle cx="596.3" cy="195.5" r="3" fill="#8a4a1a"/><circle cx="636.6" cy="272.3" r="3" fill="#8a4a1a"/><circle cx="657.4" cy="356.6" r="3" fill="#8a4a1a"/><circle cx="657.4" cy="443.4" r="3" fill="#8a4a1a"/><circle cx="636.6" cy="527.7" r="3" fill="#8a4a1a"/><circle cx="596.3" cy="604.5" r="3" fill="#8a4a1a"/><circle cx="538.7" cy="669.5" r="3" fill="#8a4a1a"/><circle cx="467.3" cy="718.8" r="3" fill="#8a4a1a"/><circle cx="386.2" cy="749.5" r="3" fill="#8a4a1a"/><circle cx="300.0" cy="760.0" r="3" fill="#8a4a1a"/><circle cx="213.8" cy="749.5" r="3" fill="#8a4a1a"/><circle cx="132.7" cy="718.8" r="3" fill="#8a4a1a"/><circle cx="61.3" cy="669.5" r="3" fill="#8a4a1a"/><circle cx="3.7" cy="604.5" r="3" fill="#8a4a1a"/><circle cx="-36.6" cy="527.7" r="3" fill="#8a4a1a"/><circle cx="-57.4" cy="443.4" r="3" fill="#8a4a1a"/><circle cx="-57.4" cy="356.6" r="3" fill="#8a4a1a"/><circle cx="-36.6" cy="272.3" r="3" fill="#8a4a1a"/><circle cx="3.7" cy="195.5" r="3" fill="#8a4a1a"/><circle cx="61.3" cy="130.5" r="3" fill="#8a4a1a"/><circle cx="132.7" cy="81.2" r="3" fill="#8a4a1a"/><circle cx="213.8" cy="50.5" r="3" fill="#8a4a1a"/>
  <g>
    <!-- wrist & bangles -->
    <rect x="190" y="620" width="220" height="180" rx="40" fill="#f0c9a2"/>
    <!-- thumb -->
    <g transform="rotate(38 205 560)">
      <rect x="112" y="430" width="60" height="230" rx="30" fill="#f0c9a2"/>
    </g>
    <rect x="174" y="240" width="62" height="320" rx="31" fill="#f0c9a2"/><rect x="247" y="195" width="62" height="365" rx="31" fill="#f0c9a2"/><rect x="320" y="210" width="62" height="350" rx="31" fill="#f0c9a2"/><rect x="393" y="265" width="62" height="295" rx="31" fill="#f0c9a2"/>
    <!-- palm -->
    <ellipse cx="300" cy="510" rx="158" ry="165" fill="#f0c9a2"/>
    <rect x="174" y="240" width="62" height="58" rx="31" fill="#8a4a1a"/><circle cx="205" cy="318" r="5" fill="#5d2f0e"/><circle cx="205" cy="340" r="3.4" fill="#8a4a1a"/><ellipse cx="205" cy="368" rx="10" ry="5" fill="#c05f21" opacity="0.9"/><circle cx="205" cy="392" r="3.4" fill="#8a4a1a"/><rect x="247" y="195" width="62" height="58" rx="31" fill="#8a4a1a"/><circle cx="278" cy="273" r="5" fill="#5d2f0e"/><circle cx="278" cy="295" r="3.4" fill="#8a4a1a"/><ellipse cx="278" cy="323" rx="10" ry="5" fill="#c05f21" opacity="0.9"/><circle cx="278" cy="347" r="3.4" fill="#8a4a1a"/><rect x="320" y="210" width="62" height="58" rx="31" fill="#8a4a1a"/><circle cx="351" cy="288" r="5" fill="#5d2f0e"/><circle cx="351" cy="310" r="3.4" fill="#8a4a1a"/><ellipse cx="351" cy="338" rx="10" ry="5" fill="#c05f21" opacity="0.9"/><circle cx="351" cy="362" r="3.4" fill="#8a4a1a"/><rect x="393" y="265" width="62" height="58" rx="31" fill="#8a4a1a"/><circle cx="424" cy="343" r="5" fill="#5d2f0e"/><circle cx="424" cy="365" r="3.4" fill="#8a4a1a"/><ellipse cx="424" cy="393" rx="10" ry="5" fill="#c05f21" opacity="0.9"/><circle cx="424" cy="417" r="3.4" fill="#8a4a1a"/>
    <!-- palm mandala -->
    <circle cx="300" cy="505" r="85.5" fill="none" stroke="#8a4a1a" stroke-width="2.375"/><circle cx="300" cy="505" r="91.19999999999999" fill="none" stroke="#8a4a1a" stroke-width="1.14" stroke-dasharray="3.8 4.75"/><ellipse cx="300.0" cy="438.5" rx="7.6" ry="19" fill="#8a4a1a" opacity="1" transform="rotate(0.0 300.0 438.5)"/><ellipse cx="347.0" cy="458.0" rx="7.6" ry="19" fill="#8a4a1a" opacity="1" transform="rotate(45.0 347.0 458.0)"/><ellipse cx="366.5" cy="505.0" rx="7.6" ry="19" fill="#8a4a1a" opacity="1" transform="rotate(90.0 366.5 505.0)"/><ellipse cx="347.0" cy="552.0" rx="7.6" ry="19" fill="#8a4a1a" opacity="1" transform="rotate(135.0 347.0 552.0)"/><ellipse cx="300.0" cy="571.5" rx="7.6" ry="19" fill="#8a4a1a" opacity="1" transform="rotate(180.0 300.0 571.5)"/><ellipse cx="253.0" cy="552.0" rx="7.6" ry="19" fill="#8a4a1a" opacity="1" transform="rotate(225.0 253.0 552.0)"/><ellipse cx="233.5" cy="505.0" rx="7.6" ry="19" fill="#8a4a1a" opacity="1" transform="rotate(270.0 233.5 505.0)"/><ellipse cx="253.0" cy="458.0" rx="7.6" ry="19" fill="#8a4a1a" opacity="1" transform="rotate(315.0 253.0 458.0)"/><ellipse cx="300.0" cy="459.4" rx="5.699999999999999" ry="13.299999999999999" fill="#c05f21" opacity="0.85" transform="rotate(0.0 300.0 459.4)"/><ellipse cx="332.2" cy="472.8" rx="5.699999999999999" ry="13.299999999999999" fill="#c05f21" opacity="0.85" transform="rotate(45.0 332.2 472.8)"/><ellipse cx="345.6" cy="505.0" rx="5.699999999999999" ry="13.299999999999999" fill="#c05f21" opacity="0.85" transform="rotate(90.0 345.6 505.0)"/><ellipse cx="332.2" cy="537.2" rx="5.699999999999999" ry="13.299999999999999" fill="#c05f21" opacity="0.85" transform="rotate(135.0 332.2 537.2)"/><ellipse cx="300.0" cy="550.6" rx="5.699999999999999" ry="13.299999999999999" fill="#c05f21" opacity="0.85" transform="rotate(180.0 300.0 550.6)"/><ellipse cx="267.8" cy="537.2" rx="5.699999999999999" ry="13.299999999999999" fill="#c05f21" opacity="0.85" transform="rotate(225.0 267.8 537.2)"/><ellipse cx="254.4" cy="505.0" rx="5.699999999999999" ry="13.299999999999999" fill="#c05f21" opacity="0.85" transform="rotate(270.0 254.4 505.0)"/><ellipse cx="267.8" cy="472.8" rx="5.699999999999999" ry="13.299999999999999" fill="#c05f21" opacity="0.85" transform="rotate(315.0 267.8 472.8)"/><circle cx="300.0" cy="425.2" r="2.4699999999999998" fill="#5d2f0e"/><circle cx="330.5" cy="431.3" r="2.4699999999999998" fill="#5d2f0e"/><circle cx="356.4" cy="448.6" r="2.4699999999999998" fill="#5d2f0e"/><circle cx="373.7" cy="474.5" r="2.4699999999999998" fill="#5d2f0e"/><circle cx="379.8" cy="505.0" r="2.4699999999999998" fill="#5d2f0e"/><circle cx="373.7" cy="535.5" r="2.4699999999999998" fill="#5d2f0e"/><circle cx="356.4" cy="561.4" r="2.4699999999999998" fill="#5d2f0e"/><circle cx="330.5" cy="578.7" r="2.4699999999999998" fill="#5d2f0e"/><circle cx="300.0" cy="584.8" r="2.4699999999999998" fill="#5d2f0e"/><circle cx="269.5" cy="578.7" r="2.4699999999999998" fill="#5d2f0e"/><circle cx="243.6" cy="561.4" r="2.4699999999999998" fill="#5d2f0e"/><circle cx="226.3" cy="535.5" r="2.4699999999999998" fill="#5d2f0e"/><circle cx="220.2" cy="505.0" r="2.4699999999999998" fill="#5d2f0e"/><circle cx="226.3" cy="474.5" r="2.4699999999999998" fill="#5d2f0e"/><circle cx="243.6" cy="448.6" r="2.4699999999999998" fill="#5d2f0e"/><circle cx="269.5" cy="431.3" r="2.4699999999999998" fill="#5d2f0e"/><circle cx="300.0" cy="474.6" r="2.28" fill="#5d2f0e"/><circle cx="321.5" cy="483.5" r="2.28" fill="#5d2f0e"/><circle cx="330.4" cy="505.0" r="2.28" fill="#5d2f0e"/><circle cx="321.5" cy="526.5" r="2.28" fill="#5d2f0e"/><circle cx="300.0" cy="535.4" r="2.28" fill="#5d2f0e"/><circle cx="278.5" cy="526.5" r="2.28" fill="#5d2f0e"/><circle cx="269.6" cy="505.0" r="2.28" fill="#5d2f0e"/><circle cx="278.5" cy="483.5" r="2.28" fill="#5d2f0e"/><circle cx="300" cy="505" r="15.2" fill="#8a4a1a"/><circle cx="300" cy="505" r="6.6499999999999995" fill="#c05f21"/>
    <!-- vine up the wrist to palm -->
    <path d="M300 700 C 282.20639770115093 710, 317.79360229884907 630, 300 640" fill="none" stroke="#8a4a1a" stroke-width="3"/><ellipse cx="309" cy="682" rx="8" ry="4.5" fill="#8a4a1a" transform="rotate(40 309 682)"/><ellipse cx="291" cy="656" rx="8" ry="4.5" fill="#8a4a1a" transform="rotate(-40 291 656)"/>
    <!-- bangle bands -->
    <rect x="190" y="700" width="220" height="14" fill="#8a4a1a"/>
    <rect x="190" y="726" width="220" height="7" fill="#c05f21"/>
    <circle cx="300.0" cy="760.0" r="0" fill="#8a4a1a"/>
    <g><circle cx="215" cy="752" r="4" fill="#5d2f0e"/><circle cx="237" cy="752" r="4" fill="#5d2f0e"/><circle cx="259" cy="752" r="4" fill="#5d2f0e"/><circle cx="281" cy="752" r="4" fill="#5d2f0e"/><circle cx="303" cy="752" r="4" fill="#5d2f0e"/><circle cx="325" cy="752" r="4" fill="#5d2f0e"/><circle cx="347" cy="752" r="4" fill="#5d2f0e"/><circle cx="369" cy="752" r="4" fill="#5d2f0e"/><circle cx="391" cy="752" r="4" fill="#5d2f0e"/></g>
  </g>
  <text x="300" y="55" text-anchor="middle" font-family="Georgia, serif" font-size="24" fill="#5d2f0e" opacity="0.75" letter-spacing="6">RANGRITII</text>
</svg>