<svg xmlns="http://www.w3.org/2000/svg" viewBox="0 0 600 600">
  <rect width="600" height="600" fill="#faeeda"/>
  <rect x="14" y="14" width="572" height="572" fill="none" stroke="#6d3512" stroke-width="2" opacity="0.5"/>
  <rect x="24" y="24" width="552" height="552" fill="none" stroke="#6d3512" stroke-width="1" stroke-dasharray="3 6" opacity="0.5"/>
  <circle cx="300" cy="300" r="189" fill="none" stroke="#6d3512" stroke-width="5.25"/><circle cx="300" cy="300" r="201.60000000000002" fill="none" stroke="#6d3512" stroke-width="2.52" stroke-dasharray="8.4 10.5"/><ellipse cx="300.0" cy="153.0" rx="16.8" ry="42" fill="#6d3512" opacity="1" transform="rotate(0.0 300.0 153.0)"/><ellipse cx="403.9" cy="196.1" rx="16.8" ry="42" fill="#6d3512" opacity="1" transform="rotate(45.0 403.9 196.1)"/><ellipse cx="447.0" cy="300.0" rx="16.8" ry="42" fill="#6d3512" opacity="1" transform="rotate(90.0 447.0 300.0)"/><ellipse cx="403.9" cy="403.9" rx="16.8" ry="42" fill="#6d3512" opacity="1" transform="rotate(135.0 403.9 403.9)"/><ellipse cx="300.0" cy="447.0" rx="16.8" ry="42" fill="#6d3512" opacity="1" transform="rotate(180.0 300.0 447.0)"/><ellipse cx="196.1" cy="403.9" rx="16.8" ry="42" fill="#6d3512" opacity="1" transform="rotate(225.0 196.1 403.9)"/><ellipse cx="153.0" cy="300.0" rx="16.8" ry="42" fill="#6d3512" opacity="1" transform="rotate(270.0 153.0 300.0)"/><ellipse cx="196.1" cy="196.1" rx="16.8" ry="42" fill="#6d3512" opacity="1" transform="rotate(315.0 196.1 196.1)"/><ellipse cx="300.0" cy="199.2" rx="12.600000000000001" ry="29.400000000000002" fill="#a34a1a" opacity="0.85" transform="rotate(0.0 300.0 199.2)"/><ellipse cx="371.3" cy="228.7" rx="12.600000000000001" ry="29.400000000000002" fill="#a34a1a" opacity="0.85" transform="rotate(45.0 371.3 228.7)"/><ellipse cx="400.8" cy="300.0" rx="12.600000000000001" ry="29.400000000000002" fill="#a34a1a" opacity="0.85" transform="rotate(90.0 400.8 300.0)"/><ellipse cx="371.3" cy="371.3" rx="12.600000000000001" ry="29.400000000000002" fill="#a34a1a" opacity="0.85" transform="rotate(135.0 371.3 371.3)"/><ellipse cx="300.0" cy="400.8" rx="12.600000000000001" ry="29.400000000000002" fill="#a34a1a" opacity="0.85" transform="rotate(180.0 300.0 400.8)"/><ellipse cx="228.7" cy="371.3" rx="12.600000000000001" ry="29.400000000000002" fill="#a34a1a" opacity="0.85" transform="rotate(225.0 228.7 371.3)"/><ellipse cx="199.2" cy="300.0" rx="12.600000000000001" ry="29.400000000000002" fill="#a34a1a" opacity="0.85" transform="rotate(270.0 199.2 300.0)"/><ellipse cx="228.7" cy="228.7" rx="12.600000000000001" ry="29.400000000000002" fill="#a34a1a" opacity="0.85" transform="rotate(315.0 228.7 228.7)"/><circle cx="300.0" cy="123.6" r="5.460000000000001" fill="#4a220a"/><circle cx="367.5" cy="137.0" r="5.460000000000001" fill="#4a220a"/><circle cx="424.7" cy="175.3" r="5.460000000000001" fill="#4a220a"/><circle cx="463.0" cy="232.5" r="5.460000000000001" fill="#4a220a"/><circle cx="476.4" cy="300.0" r="5.460000000000001" fill="#4a220a"/><circle cx="463.0" cy="367.5" r="5.460000000000001" fill="#4a220a"/><circle cx="424.7" cy="424.7" r="5.460000000000001" fill="#4a220a"/><circle cx="367.5" cy="463.0" r="5.460000000000001" fill="#4a220a"/><circle cx="300.0" cy="476.4" r="5.460000000000001" fill="#4a220a"/><circle cx="232.5" cy="463.0" r="5.460000000000001" fill="#4a220a"/><circle cx="175.3" cy="424.7" r="5.460000000000001" fill="#4a220a"/><circle cx="137.0" cy="367.5" r="5.460000000000001" fill="#4a220a"/><circle cx="123.6" cy="300.0" r="5.460000000000001" fill="#4a220a"/><circle cx="137.0" cy="232.5" r="5.460000000000001" fill="#4a220a"/><circle cx="175.3" cy="175.3" r="5.460000000000001" fill="#4a220a"/><circle cx="232.5" cy="137.0" r="5.460000000000001" fill="#4a220a"/><circle cx="300.0" cy="232.8" r="5.04" fill="#4a220a"/><circle cx="347.5" cy="252.5" r="5.04" fill="#4a220a"/><circle cx="367.2" cy="300.0" r="5.04" fill="#4a220a"/><circle cx="347.5" cy="347.5" r="5.04" fill="#4a220a"/><circle cx="300.0" cy="367.2" r="5.04" fill="#4a220a"/><circle cx="252.5" cy="347.5" r="5.04" fill="#4a220a"/><circle cx="232.8" cy="300.0" r="5.04" fill="#4a220a"/><circle cx="252.5" cy="252.5" r="5.04" fill="#4a220a"/><circle cx="300" cy="300" r="33.6" fill="#6d3512"/><circle cx="300" cy="300" r="14.700000000000001" fill="#a34a1a"/>
</svg>